{"title":"Pittsburg_VS_Greenbay_First_Quarter_720p_20110206_TTL","uid":6156645,"size":952102098,"categoryP":"video","categoryS":"hd___tv_shows","magnet":"?xt=urn:btih:a85d25d24194ed23a62857ccdda0431a9ffdc617&amp;dn=Pittsburg_VS_Greenbay_First_Quarter_720p_20110206_TTL&amp;tr=udp%3A%2F%2Ftracker.openbittorrent.com%3A80&amp;tr=udp%3A%2F%2Fopen.demonii.com%3A1337&amp;tr=udp%3A%2F%2Ftracker.coppersurfer.tk%3A6969&amp;tr=udp%3A%2F%2Fexodus.desync.com%3A6969","seeders":0,"leechers":1,"uploader":"thetorrentlord","files":2,"time":1297060235,"description":"Pittsburg_VS_Greenbay_First_Quarter_720p_20110206_TTL.avi\nFormat                           : AVI\nFormat/Info                      : Audio Video Interleave\nFile size                        : 908 MiB\nDuration                         : 1h 4mn\nOverall bit rate                 : 1 959 Kbps\nMovie name                       : Pittsburg_VS_Greenbay_First_Quarter_720p_20110206_TTL.mpg\nDirector                         : created.with.SUPER(C).v2010.bld.37\nWriting application              : SUPER(C)   \n\nVideo\nID                               : 0\nFormat                           : MPEG-4 Visual\nFormat profile                   : Simple@L3\nFormat settings, BVOP            : No\nFormat settings, QPel            : No\nFormat settings, GMC             : No warppoints\nFormat settings, Matrix          : Default (H.263)\nCodec ID                         : XVID\nCodec ID/Hint                    : XviD\nDuration                         : 32mn 24s\nBit rate                         : 3 792 Kbps\nWidth                            : 1 280 pixels\nHeight                           : 720 pixels\nDisplay aspect ratio             : 16:9\nFrame rate                       : 29.970 fps\nResolution                       : 8 bits\nColorimetry                      : 4:2:0\nScan type                        : Progressive\nBits/(Pixel*Frame)               : 0.137\nStream size                      : 879 MiB (97%)\nWriting library                  : XviD 1.1.2 (UTC 2006-11-01)\n\nAudio\nID                               : 1\nFormat                           : MPEG Audio\nFormat version                   : Version 2\nFormat profile                   : Layer 3\nMode                             : Joint stereo\nFormat_Settings_ModeExtension    : MS Stereo\nCodec ID                         : 55\nCodec ID/Hint                    : MP3\nDuration                         : 1h 4mn\nBit rate mode                    : Constant\nBit rate                         : 112 Kbps\nChannel(s)                       : 2 channels\nSampling rate                    : 22.05 KHz\nStream size                      : 26.0 MiB (3%)\nAlignment                        : Aligned on interleaves\nInterleave, duration             : 26 ms (0.78 video frame)\nInterleave, preload duration     : 26 ms\nWriting library                  : LAME3.98\n\n","torrent":{"xt":"urn:btih:a85d25d24194ed23a62857ccdda0431a9ffdc617","amp;dn":"Pittsburg_VS_Greenbay_First_Quarter_720p_20110206_TTL","amp;tr":["udp%3A%2F%2Ftracker.openbittorrent.com%3A80","udp%3A%2F%2Fopen.demonii.com%3A1337","udp%3A%2F%2Ftracker.coppersurfer.tk%3A6969","udp%3A%2F%2Fexodus.desync.com%3A6969"],"infoHash":"a85d25d24194ed23a62857ccdda0431a9ffdc617","infoHashBuffer":{"type":"Buffer","data":[168,93,37,210,65,148,237,35,166,40,87,204,221,160,67,26,159,253,198,23]},"announce":[],"urlList":[]}}